<svg width="67" height="102" viewBox="0 0 67 102" fill="none" xmlns="http://www.w3.org/2000/svg">
<g clip-path="url(#clip0_130_146)">
<path d="M34.1646 26.3606C34.0602 25.7399 34.3307 25.3324 34.8004 24.9202C37.3462 22.6932 39.9038 20.4829 42.5065 18.3246C45.6051 15.7541 48.7511 13.2429 51.9327 10.7767C56.6209 7.14486 61.3731 3.59832 66.2108 0.167871C66.2583 0.134704 66.3057 0.103905 66.3508 0.0707381C66.4979 -0.0406093 66.5382 0.0209871 66.5501 0.179717C66.6403 1.3311 66.7233 2.48011 66.7755 3.63386C66.8443 5.12876 66.906 6.62129 66.868 8.11619C66.8348 9.46657 66.785 10.8193 66.5003 12.1508C66.346 12.8757 65.9973 13.4324 65.4065 13.9063C61.4775 17.0619 57.5723 20.246 53.6552 23.4158C51.7714 24.9415 49.8805 26.4601 47.9895 27.9787C47.3703 28.4762 47.2564 29.3172 47.7285 29.9261C48.1959 30.5278 49.0477 30.6273 49.6788 30.1346C52.5116 27.9289 55.3421 25.7186 58.1702 23.5106C60.8797 21.395 63.5915 19.2794 66.301 17.1638C66.3579 17.1187 66.4077 17.0335 66.4931 17.0761C66.5762 17.1164 66.5382 17.2111 66.5406 17.2822C66.6142 18.9856 66.6355 20.689 66.5809 22.3924C66.5453 23.4798 66.4955 24.5672 66.2559 25.6356C66.1562 26.0763 65.9546 26.4293 65.6011 26.7278C62.3886 29.4286 59.2212 32.1791 55.9352 34.7898C55.7217 34.9604 55.475 35.1002 55.2899 35.2968C54.7917 35.8299 54.8059 36.6259 55.2946 37.1518C55.7715 37.6659 56.5545 37.7417 57.1239 37.2987C58.9294 35.9009 60.7254 34.4937 62.5262 33.0888C63.7813 32.1104 65.034 31.1296 66.2915 30.1535C66.3532 30.1061 66.4125 30.0019 66.505 30.0469C66.5809 30.0848 66.5406 30.1843 66.5453 30.2554C66.6569 31.9848 66.7304 33.7143 66.6924 35.4461C66.664 36.7206 66.6308 38 66.3271 39.2508C66.2084 39.7365 65.9736 40.1132 65.5584 40.4283C61.2308 43.7213 56.8677 46.9646 52.4855 50.1842C52.3147 50.3098 52.2174 50.433 52.2578 50.6486C52.2767 50.7504 52.2649 50.857 52.2649 50.9613C52.2649 67.4289 52.2649 83.8964 52.2649 100.364C52.2649 100.781 52.2151 101.177 51.9114 101.496C51.5579 101.866 51.0572 101.894 50.6587 101.575C50.2743 101.269 50.0987 100.847 49.9801 100.39C49.553 98.7341 49.126 97.0757 48.6918 95.4197C47.8614 92.2546 46.9598 89.1108 45.9325 86.0002C44.9123 82.9062 43.7592 79.8666 42.3096 76.9431C41.0023 74.3063 39.453 71.8212 37.6024 69.5255C36.4541 68.1017 35.2227 66.7537 33.9155 65.472C33.5003 65.0645 33.4955 65.0621 33.0708 65.4791C31.8798 66.6471 30.7386 67.8624 29.6804 69.1512C28.1145 71.0583 26.7384 73.0957 25.5522 75.2611C24.029 78.04 22.8166 80.9564 21.7584 83.9415C20.0004 88.9047 18.6433 93.984 17.3407 99.08C17.2102 99.5941 17.0845 100.108 16.9421 100.618C16.8354 100.997 16.6622 101.342 16.33 101.582C15.7891 101.975 15.1413 101.807 14.8685 101.193C14.7617 100.956 14.7238 100.708 14.7238 100.447C14.7262 98.9307 14.7238 97.4169 14.7238 95.9006C14.7238 80.9659 14.719 66.0335 14.7404 51.0987C14.7404 50.5325 14.5767 50.2103 14.1235 49.8833C10.9633 47.5948 7.83622 45.2589 4.71867 42.9087C3.56086 42.0369 2.41254 41.1532 1.25473 40.2814C0.746996 39.9 0.668702 39.3266 0.564309 38.7746C0.400602 37.9194 0.357896 37.0476 0.319935 36.1781C0.258248 34.7969 0.305699 33.4158 0.346033 32.0346C0.362641 31.4399 0.407719 30.8453 0.443308 30.2506C0.448053 30.1796 0.410092 30.0801 0.481269 30.0398C0.573799 29.99 0.633113 30.0943 0.6948 30.144C2.11597 31.248 3.53239 32.3568 4.95118 33.4655C6.593 34.7472 8.23481 36.0336 9.88375 37.3082C10.4555 37.7488 11.2717 37.6446 11.7296 37.1068C12.1923 36.5619 12.1828 35.7327 11.6608 35.2518C11.2859 34.9083 10.8494 34.6311 10.4508 34.3089C8.26566 32.551 6.13035 30.7339 3.99029 28.9239C3.15752 28.2203 2.34611 27.493 1.49198 26.8178C1.01984 26.4435 0.780212 25.9815 0.678192 25.4106C0.561936 24.7567 0.493132 24.0981 0.452798 23.4371C0.348405 21.7456 0.376876 20.0493 0.400602 18.3554C0.405347 17.9858 0.429073 17.6186 0.44568 17.249C0.448053 17.1875 0.419582 17.1045 0.490759 17.069C0.576172 17.0264 0.625996 17.1116 0.682937 17.1543C2.61658 18.6634 4.55022 20.1749 6.48386 21.684C9.516 24.0507 12.5481 26.4151 15.5803 28.7818C16.1544 29.2296 16.7286 29.6821 17.3075 30.1274C17.9433 30.6155 18.7904 30.5231 19.2601 29.9213C19.7418 29.3054 19.616 28.4691 18.9802 27.955C15.8341 25.4153 12.6881 22.8709 9.54447 20.3265C6.79941 18.1043 4.06147 15.8679 1.30455 13.6575C0.730388 13.1979 0.583289 12.5677 0.448053 11.921C0.229777 10.862 0.187071 9.78403 0.13962 8.70609C0.0779329 7.287 0.125384 5.86791 0.175208 4.44883C0.227405 3.02974 0.319935 1.60354 0.443308 0.179717C0.471779 -0.140111 0.614133 0.0541545 0.709035 0.120489C2.24171 1.21975 3.77676 2.3119 5.29995 3.42301C9.81969 6.7279 14.2754 10.1181 18.6599 13.6006C21.9079 16.1806 25.1251 18.8032 28.2664 21.5134C29.7303 22.7761 31.1657 24.0673 32.639 25.3182C33.0115 25.6333 33.0708 25.9673 32.9593 26.389C32.7505 26.389 32.5394 26.3677 32.3353 26.3914C30.6579 26.5857 29.1727 27.2703 27.7919 28.199C25.825 29.521 24.1808 31.1888 22.6956 33.0154C20.7596 35.3939 19.132 37.9739 17.782 40.7292C16.9231 42.4823 16.1853 44.2828 15.687 46.1733C15.3976 47.2726 15.1912 48.3861 15.2481 49.5303C15.2837 50.2387 15.483 50.8641 16.0121 51.3924C17.1414 52.5178 18.3799 53.5128 19.6231 54.5007C21.4666 55.9672 23.3504 57.3815 25.2414 58.784C27.9769 60.812 30.7101 62.8423 33.4433 64.8773C33.5928 64.9887 33.6996 64.9816 33.8443 64.8726C34.9309 64.0505 36.0176 63.2285 37.1161 62.423C40.9999 59.5777 44.9621 56.8343 48.6799 53.7687C49.5696 53.0342 50.4427 52.2785 51.1996 51.4019C51.6361 50.8949 51.8758 50.3287 51.8853 49.6488C51.8971 48.8386 51.7904 48.0473 51.6053 47.2631C51.0644 44.9556 50.1628 42.7832 49.1189 40.6676C47.7736 37.936 46.1769 35.356 44.2741 32.9727C43.0593 31.4541 41.7402 30.0351 40.198 28.841C38.4186 27.4622 36.4992 26.4056 34.167 26.3558L34.1646 26.3606Z" fill="#F3EFF5"/>
<path d="M34.1655 26.3611C36.4977 26.4108 38.4171 27.4651 40.1965 28.8463C41.7387 30.0403 43.0579 31.4594 44.2726 32.978C46.1778 35.3613 47.7721 37.9412 49.1174 40.6728C50.1589 42.7884 51.0629 44.9608 51.6038 47.2683C51.7865 48.0525 51.8933 48.8438 51.8838 49.654C51.8743 50.334 51.6347 50.9002 51.1981 51.4072C50.4413 52.2861 49.5682 53.0395 48.6785 53.7739C44.9606 56.8395 40.9985 59.5829 37.1146 62.4282C36.0161 63.2337 34.9294 64.0558 33.8428 64.8778C33.6981 64.9868 33.5889 64.9939 33.4418 64.8826C30.711 62.8499 27.9755 60.8172 25.2399 58.7893C23.3466 57.3868 21.4651 55.97 19.6217 54.5059C18.3784 53.518 17.14 52.523 16.0106 51.3977C15.4815 50.8694 15.2799 50.2463 15.2466 49.5356C15.1921 48.3913 15.3961 47.2778 15.6856 46.1786C16.1838 44.288 16.9217 42.4875 17.7805 40.7344C19.1282 37.9791 20.7557 35.3992 22.6941 33.0206C24.1794 31.194 25.8259 29.5262 27.7904 28.2042C29.1736 27.2756 30.6588 26.5909 32.3339 26.3966C32.5403 26.3729 32.7491 26.3943 32.9578 26.3943C33.0124 26.5103 32.9934 26.6359 32.9934 26.7591C32.9934 33.2362 32.9934 39.7133 32.9982 46.1904C32.9982 46.4036 32.9531 46.5221 32.7443 46.624C31.9898 46.9912 31.6079 47.8393 31.8 48.6495C31.9946 49.4692 32.7348 50.0449 33.5866 50.0378C34.4336 50.0331 35.1453 49.455 35.3423 48.6116C35.525 47.8251 35.1287 46.9793 34.3861 46.6168C34.1939 46.5244 34.1323 46.4249 34.1323 46.2141C34.1394 39.6991 34.137 33.1841 34.1394 26.6691C34.1394 26.5672 34.1133 26.4606 34.1702 26.3635L34.1655 26.3611Z" fill="#CCCCCD"/>
</g>
<defs>
<clipPath id="clip0_130_146">
<rect width="66.7664" height="101.836" fill="white" transform="translate(0.116699)"/>
</clipPath>
</defs>
</svg>
