<svg width="104" height="102" viewBox="0 0 104 102" fill="none" xmlns="http://www.w3.org/2000/svg">
<path d="M98.7215 68.906C96.8243 74.0341 94.2615 78.5937 90.9467 82.7209C83.0015 92.613 72.7557 98.7788 60.2982 101.03C36.4628 105.335 12.3549 92.06 3.8595 68.2614C-6.21341 40.0446 10.3136 9.60056 39.5339 2.36295C43.9546 1.26761 48.4355 0.814276 52.982 0.908612C53.7026 0.924334 54.1454 0.976744 54.1428 1.96202C54.1009 13.526 54.1166 25.0873 54.114 36.6512C54.114 36.8189 54.0852 36.984 54.059 37.2513C50.7572 36.0144 47.3952 35.5716 43.9205 35.6161C34.1726 35.7471 24.6133 42.5812 21.1386 52.02C15.751 66.6603 24.304 82.4719 39.5523 85.8313C51.7818 88.5251 64.2236 81.8614 68.7543 69.8677C68.9534 69.3384 69.0373 68.8824 69.8339 68.885C79.3906 68.9191 88.9499 68.906 98.7188 68.906H98.7215Z" fill="#F3EFF5"/>
<path d="M103.1 21.0954C103.279 31.7684 94.6993 42.0666 82.1474 42.0981C70.2638 42.1269 61.0871 32.8375 61.0373 21.0692C60.9875 9.0126 71.0342 -0.549328 83.1589 0.024545C94.1332 0.546009 103.286 9.7961 103.1 21.0928V21.0954Z" fill="#F3EFF5"/>
<path d="M66.3496 47.1755C78.0053 47.1755 89.4827 47.1808 100.96 47.165C101.573 47.165 101.762 47.3406 101.807 47.9643C102.011 50.9332 102.032 50.9332 99.1259 50.9332C89.3045 50.9332 79.4832 50.9149 69.6645 50.9594C68.653 50.9647 68.0738 50.7236 67.7096 49.7488C67.3952 48.9102 66.8763 48.1503 66.3522 47.1781L66.3496 47.1755Z" fill="#F3EFF5"/>
<path d="M69.6201 55.2783C69.911 54.7725 70.4036 54.9927 70.8019 54.99C80.7517 54.9769 90.7014 54.99 100.651 54.9638C101.526 54.9638 101.875 55.0529 101.671 56.0959C101.238 58.3075 101.309 58.3206 99.0711 58.3206C89.9939 58.3206 80.9168 58.3023 71.8396 58.3416C70.6814 58.3468 69.8638 58.2629 70.0394 56.8112C70.0682 56.5806 69.8795 56.3212 69.7931 56.0749C69.6751 55.8207 69.6673 55.5429 69.6201 55.2757V55.2783Z" fill="#F3EFF5"/>
<path d="M100.924 60.8028C101.005 62.3384 100.279 62.5821 99.0186 62.5769C89.8655 62.5218 80.7149 62.5507 71.5618 62.5375C71.0456 62.5375 70.3354 62.8782 70.3119 61.775C70.2883 60.7714 70.7704 60.795 71.4858 60.795C78.8073 60.8107 86.1287 60.8055 93.4528 60.8055C95.9344 60.8055 98.4159 60.8055 100.924 60.8055V60.8028Z" fill="#F3EFF5"/>
<path d="M69.4705 68.1224C69.3997 66.8122 69.9447 66.5056 71.1082 66.5108C80.2142 66.5633 89.3202 66.5344 98.4235 66.5606C98.7485 66.5606 99.4481 66.1912 99.3773 66.938C99.3302 67.4385 99.3223 68.1434 98.3737 68.1407C88.7489 68.1119 79.1215 68.1224 69.4705 68.1224Z" fill="#F3EFF5"/>
<path d="M84.8911 65.2426C80.308 65.2426 75.7248 65.2504 71.1417 65.2269C70.7722 65.2269 70.1381 65.5937 70.0857 64.7316C70.028 63.7935 70.6622 63.9533 71.2125 63.9533C80.5543 63.9533 89.8935 63.9481 99.2353 63.9691C99.5602 63.9691 100.213 63.6153 100.173 64.3988C100.145 64.9727 99.8589 65.2688 99.1619 65.2635C94.4032 65.2269 89.6472 65.2452 84.8885 65.2452L84.8911 65.2426Z" fill="#F3EFF5"/>
<path d="M69.6217 55.2798C69.8863 55.5025 69.847 55.7881 69.7946 56.079C70.1641 55.72 68.4032 55.8222 69.6217 55.2798Z" fill="#F3EFF5"/>
</svg>
