<svg width="75" height="102" viewBox="0 0 75 102" fill="none" xmlns="http://www.w3.org/2000/svg">
<g clip-path="url(#clip0_130_114)">
<path d="M13.9889 12.8227C18.8441 14.0299 23.5059 15.3673 27.9495 17.6417V0.0012207C28.1935 0.13337 28.3502 0.208884 28.498 0.299302C31.3337 2.02718 34.1715 3.75109 36.9993 5.49288C37.3336 5.69855 37.5706 5.7224 37.9218 5.50579C40.704 3.78487 43.502 2.08878 46.2951 0.386739C46.4757 0.276449 46.6611 0.174108 46.9379 0.0141376V17.6695C51.4122 15.3713 56.0919 14.0329 60.9084 12.8346V28.8555C65.352 27.6731 69.8055 27.0948 74.3701 26.8067C74.382 27.069 74.4018 27.2916 74.4018 27.5141C74.4028 44.006 74.4028 60.4979 74.4028 76.9897C74.4028 77.6703 74.4028 77.6733 73.7353 77.6733C69.6854 77.6733 65.6356 77.6733 61.5858 77.6733C60.9193 77.6733 60.9193 77.6753 60.9193 78.3549C60.9193 83.62 60.9193 88.8861 60.9193 94.1512V94.9014C56.201 92.2803 51.5927 89.7188 46.9468 87.1374C43.7926 92.0279 40.6593 96.8866 37.4675 101.836C34.2826 96.8976 31.1443 92.0329 27.9892 87.1404C23.3551 89.7158 18.7548 92.2723 14.0613 94.8806C14.0434 94.5854 14.0187 94.3679 14.0187 94.1503C14.0167 88.901 14.0167 83.6528 14.0167 78.4036C14.0167 77.9181 13.7713 77.6746 13.2807 77.6733C9.29735 77.6733 5.31399 77.6733 1.32964 77.6733C1.10052 77.6733 0.871397 77.6733 0.598633 77.6733V26.8087C5.09082 27.0839 9.53639 27.6622 13.9889 28.8416V12.8207V12.8227ZM31.2623 44.163V44.8277C31.2623 51.1202 31.2623 57.4127 31.2623 63.7052C31.2623 66.371 31.2554 69.0369 31.2703 71.7027C31.2723 72.1041 31.1691 72.2681 30.7456 72.2492C30.0691 72.2194 29.3907 72.2413 28.7132 72.2413C28.21 72.2413 27.9584 71.9932 27.9584 71.4971C27.9584 61.5789 27.9584 51.6597 27.9584 41.7416C27.9584 41.4475 27.9673 41.1931 27.6708 40.9646C24.6813 38.6604 21.4468 36.7884 17.9613 35.3487C17.8205 35.2901 17.6737 35.2464 17.514 35.1897V73.4455H18.1359C20.318 73.4455 22.5001 73.4555 24.6813 73.4366C25.0889 73.4336 25.3389 73.5498 25.564 73.9055C26.8267 75.9047 28.1171 77.8869 29.3996 79.8741C29.4948 80.0222 29.6 80.1643 29.713 80.3272C29.9243 80.212 30.0989 80.1206 30.2705 80.0242C32.523 78.7732 34.7795 77.5282 37.0231 76.2604C37.3554 76.0726 37.5954 76.0806 37.9247 76.2664C40.1971 77.5491 42.4824 78.808 44.7647 80.0739C44.9164 80.1583 45.0741 80.2299 45.2368 80.3113C45.3717 80.1116 45.4768 79.9636 45.575 79.8115C46.8387 77.8521 48.1132 75.8987 49.3561 73.9254C49.5921 73.5508 49.849 73.4296 50.2755 73.4336C52.4408 73.4535 54.606 73.4435 56.7713 73.4425C57.4587 73.4425 57.4606 73.4415 57.4606 72.7758C57.4606 60.4561 57.4606 48.1364 57.4606 35.8167V35.1878C57.2821 35.2424 57.1889 35.2633 57.1006 35.3C53.5626 36.7437 50.2825 38.6346 47.2573 40.9745C46.9706 41.1961 46.9547 41.4465 46.9547 41.7515C46.9577 48.971 46.9577 56.1906 46.9577 63.4101C46.9577 66.1922 46.9518 68.9743 46.9646 71.7554C46.9666 72.1181 46.8684 72.2591 46.4915 72.2452C45.8151 72.2204 45.1366 72.2393 44.4582 72.2383C43.9358 72.2383 43.6743 71.9813 43.6736 71.4672C43.6736 62.6252 43.6736 53.7821 43.6736 44.94C43.6736 44.7343 43.6736 44.5296 43.6736 44.1948C43.4485 44.4054 43.3284 44.5088 43.2174 44.622C41.1672 46.7285 39.3808 49.0406 37.8265 51.5355C37.5181 52.0313 37.4228 52.0284 37.1154 51.5544C36.7642 51.0129 36.4221 50.4664 36.058 49.9338C34.6635 47.896 33.0993 45.9982 31.2623 44.16V44.163ZM60.9193 73.4187C61.1623 73.4296 61.3408 73.4445 61.5184 73.4445C64.5426 73.4455 67.5658 73.4346 70.59 73.4564C71.084 73.4604 71.1871 73.2975 71.1861 72.8344C71.1752 59.4605 71.1772 46.0866 71.1772 32.7117V32.1374C70.9213 32.1374 70.7269 32.1255 70.5335 32.1394C67.4795 32.355 64.4851 32.9035 61.5402 33.745C61.071 33.8792 60.9044 34.0511 60.9044 34.5697C60.9233 47.2988 60.9193 60.0269 60.9193 72.756C60.9193 72.9527 60.9193 73.1494 60.9193 73.4187ZM3.81428 32.0609C3.79841 32.3321 3.78254 32.4772 3.78254 32.6233C3.78155 46.0518 3.78254 59.4804 3.77361 72.909C3.77361 73.3064 3.86288 73.4545 4.29038 73.4525C7.34832 73.4356 10.4063 73.4356 13.4642 73.4525C13.9046 73.4554 14.0246 73.3173 14.0246 72.8871C14.0147 60.0706 14.0157 47.2551 14.0226 34.4386C14.0226 34.0719 13.9423 33.8742 13.5435 33.7878C11.7086 33.3883 9.89048 32.9005 8.04461 32.5577C6.67087 32.3033 5.26539 32.2228 3.81329 32.0589L3.81428 32.0609ZM37.4695 29.7835C35.4441 28.0716 33.4197 26.3616 31.3109 24.579C31.2792 24.8165 31.2643 24.8781 31.2643 24.9397C31.2633 29.096 31.2584 33.2522 31.2752 37.4085C31.2752 37.5992 31.422 37.8407 31.5748 37.9708C33.6051 39.7047 35.4847 41.5866 37.2215 43.6135C37.2939 43.699 37.3385 43.8083 37.41 43.9285C37.5835 43.7447 37.6768 43.6533 37.7611 43.5549C39.4582 41.5816 41.2832 39.7365 43.2799 38.0672C43.5784 37.8178 43.6816 37.5535 43.6806 37.175C43.6697 33.2005 43.6746 29.2261 43.6726 25.2517C43.6726 25.0838 43.6518 24.9159 43.6409 24.7479C43.5943 24.7241 43.5486 24.7012 43.502 24.6774C41.4865 26.3824 39.4721 28.0884 37.4705 29.7815L37.4695 29.7835ZM37.4179 23.813C39.4006 22.4458 41.313 21.1153 43.2431 19.8107C43.5546 19.6001 43.6825 19.3914 43.6816 19.0148C43.6687 15.256 43.6736 11.4972 43.6726 7.73842C43.6726 7.56554 43.6518 7.39265 43.6369 7.14921C43.4128 7.2764 43.256 7.35886 43.1063 7.45028C41.3566 8.51542 39.603 9.5746 37.8622 10.6556C37.5637 10.8415 37.3524 10.8246 37.0648 10.6447C35.5224 9.6839 33.9672 8.74296 32.4159 7.79704C32.0558 7.57746 31.6898 7.36582 31.3238 7.14921C31.2921 7.21579 31.2792 7.2297 31.2792 7.24361C31.2732 11.2498 31.2653 15.257 31.2772 19.2632C31.2772 19.4133 31.4359 19.61 31.5748 19.7064C32.6877 20.4794 33.8214 21.2226 34.9323 21.9976C35.7843 22.5928 36.6135 23.2218 37.4199 23.812L37.4179 23.813ZM46.9815 35.1858C47.1362 35.0963 47.2235 35.0526 47.3049 34.999C50.3489 32.9571 53.5894 31.3057 57.046 30.0866C57.4011 29.9614 57.4666 29.7507 57.4656 29.4179C57.4577 25.9274 57.4606 22.4358 57.4596 18.9453C57.4596 18.7833 57.4418 18.6214 57.4329 18.4703C57.3634 18.4535 57.3297 18.4336 57.3019 18.4395C53.8195 19.2563 50.465 20.4119 47.3435 22.1944C47.043 22.3663 46.9498 22.565 46.9508 22.9018C46.9617 26.8226 46.9577 30.7443 46.9587 34.6651C46.9587 34.8102 46.9716 34.9552 46.9825 35.1858H46.9815ZM27.9296 35.1709C27.9415 35.0178 27.9554 34.9244 27.9554 34.831C27.9564 30.8099 27.9525 26.7878 27.9654 22.7667C27.9654 22.4627 27.8324 22.3315 27.6033 22.2003C24.9352 20.6762 22.0905 19.5961 19.1288 18.8082C18.5971 18.6671 18.0615 18.5419 17.5011 18.4018C17.4892 18.5528 17.4763 18.6333 17.4763 18.7148C17.4753 22.3226 17.4823 25.9303 17.4644 29.5381C17.4624 29.9246 17.6787 29.9962 17.9494 30.0935C21.303 31.3008 24.4631 32.8945 27.4347 34.8648C27.5805 34.9612 27.7323 35.0486 27.9296 35.1699V35.1709ZM17.4991 87.1245C20.4242 85.4979 23.2986 83.9002 26.2058 82.2846C25.2377 80.7763 24.3093 79.3137 23.3512 77.871C23.2629 77.7389 22.9802 77.6842 22.7878 77.6832C21.2028 77.6683 19.6168 77.6862 18.0318 77.6673C17.6142 77.6624 17.4624 77.7667 17.4654 78.2188C17.4862 81.0317 17.4753 83.8436 17.4763 86.6565C17.4763 86.7847 17.4882 86.9118 17.4991 87.1245ZM57.411 87.1076C57.4368 86.9466 57.4567 86.883 57.4567 86.8184C57.4586 83.9241 57.4537 81.0297 57.4656 78.1353C57.4676 77.7429 57.2881 77.6693 56.9518 77.6713C55.3341 77.6813 53.7153 77.6842 52.0976 77.6683C51.7653 77.6654 51.5947 77.8134 51.431 78.0698C50.6167 79.3525 49.7885 80.6273 48.9682 81.9061C48.8928 82.0243 48.8333 82.1535 48.756 82.2975C51.6453 83.9032 54.4949 85.487 57.41 87.1076H57.411ZM42.4625 84.6395C40.827 83.7313 39.2588 82.852 37.6788 81.9985C37.5468 81.9269 37.2959 81.9746 37.1471 82.0541C36.058 82.6403 34.9819 83.2494 33.9007 83.8505C33.4435 84.1049 32.9862 84.3603 32.4764 84.6444C34.1477 87.2377 35.7882 89.7834 37.4675 92.3876C39.1477 89.7814 40.7912 87.2338 42.4635 84.6385L42.4625 84.6395Z" fill="#F3EFF5"/>
</g>
<defs>
<clipPath id="clip0_130_114">
<rect width="73.8042" height="101.836" fill="white" transform="translate(0.598145)"/>
</clipPath>
</defs>
</svg>
