<svg width="104" height="102" viewBox="0 0 104 102" fill="none" xmlns="http://www.w3.org/2000/svg">
<path d="M103.687 48.8013C103.687 54.4721 101.824 59.0325 98.8062 63.1876C98.4955 63.6165 98.2101 64.0825 97.8255 64.4358C96.8852 65.3004 96.7039 66.34 96.6703 67.5832C96.5192 73.1446 94.9005 78.2114 91.25 82.5061C88.2058 86.0875 84.3169 88.3501 79.847 89.6504C78.6834 89.9885 77.4811 90.1988 76.2906 90.4293C75.901 90.505 75.6307 90.6597 75.3788 90.9743C72.8736 94.0982 69.972 96.7779 66.4761 98.7596C62.6711 100.916 58.5908 102.058 54.2016 101.799C50.0306 101.554 46.1686 100.242 42.6541 97.9891C41.2369 97.0807 39.939 95.9907 38.5638 95.0167C38.3069 94.835 37.9341 94.6987 37.6268 94.7189C32.1293 95.0755 26.798 94.5019 21.8866 91.7851C16.1473 88.6091 12.658 83.6819 11.1015 77.372C10.6565 75.5703 10.4903 73.698 10.2518 71.8526C10.1947 71.4052 9.98149 71.1528 9.68093 70.8904C6.7055 68.2931 4.19519 65.3189 2.51605 61.7173C0.9427 58.3428 0.0023835 54.7917 0.39866 51.042C0.821802 47.0384 2.15336 43.3123 4.43698 39.9781C5.3773 38.6038 6.43012 37.3018 7.50141 36.025C7.88761 35.564 8.04545 35.1502 8.00011 34.5581C7.74321 31.1751 8.03538 27.836 9.0479 24.5943C11.5616 16.5483 17.1061 11.6582 25.0669 9.35017C27.9096 8.52588 30.8297 8.18608 33.7849 8.16421C34.1913 8.16084 34.47 8.03636 34.7572 7.75375C38.097 4.45999 41.9136 1.94004 46.4926 0.745667C52.5543 -0.833927 58.3003 0.143437 63.6736 3.22861C65.5844 4.32541 67.3039 5.75865 69.0888 7.06909C69.4246 7.31469 69.7252 7.44927 70.1467 7.44254C74.5258 7.37021 78.7472 8.10365 82.6814 10.0987C88.7028 13.152 92.3516 18.1195 94.1012 24.5674C94.6688 26.6601 94.9492 28.7999 95.0701 30.9649C95.0869 31.2744 95.2497 31.6495 95.4697 31.8649C98.1933 34.5244 100.504 37.4733 102.005 41.0043C103.125 43.6386 103.716 46.3857 103.691 48.803L103.687 48.8013ZM80.3373 66.5032C80.3978 66.5385 80.4599 66.5755 80.5204 66.6109C81.3566 65.2937 82.3926 64.0606 82.9937 62.6442C85.1246 57.6245 85.6535 52.3474 84.8693 46.9812C83.7006 38.9856 79.8907 32.4233 73.5973 27.402C66.2544 21.5428 57.8167 19.3442 48.5832 20.7993C37.4136 22.5589 29.3503 28.7006 24.4641 38.9251C23.1459 41.6822 22.2224 44.6009 22.2123 47.7028C22.2039 50.0596 22.2677 52.4214 22.439 54.7715C22.5733 56.627 22.7883 58.4959 23.2064 60.3043C23.8764 63.2027 25.3204 65.7849 26.9038 68.2796C27.1171 68.6161 27.4193 68.8987 27.6796 69.2065C27.7417 69.0972 27.7333 69.0585 27.7165 69.0248C27.5587 68.7086 27.4025 68.3923 27.2413 68.0778C24.3213 62.3885 23.7219 56.4251 25.3574 50.28C27.0348 43.9784 30.7759 39.0866 36.1072 35.4278C42.2058 31.2408 49.0013 29.6679 56.329 30.3105C62.2043 30.8252 67.4953 32.8725 72.1465 36.5162C80.7739 43.2736 84.285 54.0061 81.15 64.1313C80.9032 64.9304 80.6094 65.7143 80.3373 66.5049V66.5032ZM52.7491 81.7676C53.278 81.7676 53.812 81.8164 54.3359 81.7575C55.7145 81.6061 57.1669 81.6364 58.4498 81.1906C64.2344 79.182 67.9906 73.1849 67.5238 66.9507C66.9009 58.6254 59.3666 52.5813 51.1808 53.9741C45.6816 54.9094 41.828 58.0821 40.0313 63.3794C38.2229 68.7086 39.2892 73.6206 43.1478 77.7437C45.7051 80.4756 48.8233 82.1814 52.7491 81.7659V81.7676ZM67.2233 78.277L67.3458 78.3628C67.7354 78.102 68.1334 77.8564 68.5112 77.5789C73.6342 73.804 76.8531 68.8583 77.4442 62.4407C78.0319 56.0416 75.8826 50.5542 71.3556 46.0526C66.4761 41.1994 60.4782 38.957 53.6542 38.9234C47.5589 38.8948 42.0194 40.6594 37.3548 44.6496C30.8733 50.1942 28.2958 57.1955 30.2823 65.5999C31.5836 71.1074 35.0258 75.1615 39.6418 78.2804C39.7022 78.3207 39.7828 78.3291 39.9491 78.3847C32.1209 70.9644 32.2183 57.8112 40.216 50.3405C47.6865 43.3627 58.9166 43.2013 66.5331 50.0176C70.2911 53.382 72.4303 57.638 72.8601 62.6678C73.3773 68.7035 71.4614 73.9201 67.2216 78.277H67.2233ZM76.2352 71.0317C76.299 70.9829 76.336 70.9628 76.3595 70.9342C76.4333 70.8433 76.5055 70.7491 76.5744 70.6532C80.5455 64.9573 81.9208 58.6776 80.4834 51.8915C78.9688 44.7472 74.7844 39.4297 68.6371 35.665C62.6896 32.023 56.1796 30.8236 49.3035 31.7538C41.697 32.7833 35.4036 36.2335 30.6735 42.3534C23.8814 51.143 24.145 63.5324 31.2713 72.0629C31.6608 72.5289 32.0857 72.9663 32.4954 73.4171C32.3761 73.0285 32.1663 72.7223 31.9564 72.4145C28.5259 67.3931 27.4563 61.8788 28.7408 55.9591C30.0841 49.7669 33.7178 45.1375 38.9752 41.7764C44.6456 38.1513 50.8903 36.9771 57.5179 37.8821C64.0934 38.7804 69.6966 41.6301 73.9281 46.7995C78.9084 52.8857 80.2702 59.7693 77.822 67.3073C77.4139 68.5656 76.7876 69.7532 76.2386 71.0284L76.2352 71.0317ZM41.3511 77.7875C38.8979 74.5442 37.6906 70.9173 38.0029 66.838C38.3169 62.7334 39.986 59.268 43.0319 56.5075C48.3565 51.6813 56.2014 51.1278 62.1221 55.2122C66.0764 57.9408 68.3416 61.7678 68.7664 66.5705C69.1895 71.3513 67.68 75.5098 64.3318 78.9886C70.0761 74.8335 73.1003 67.2972 71.045 59.6095C69.2466 52.8773 62.9885 46.6397 54.2066 46.3268C46.4557 46.0492 39.5326 50.5895 36.6798 57.8331C33.8336 65.0616 36.0148 73.0487 41.3511 77.7875ZM32.6314 9.7909C25.7872 10.2485 19.561 12.2991 14.8879 17.778C11.0226 22.3099 9.80015 27.7216 9.79343 33.5908C9.93448 33.5134 9.99157 33.4949 10.0319 33.4579C14.2465 29.6628 19.0488 26.8064 24.2105 24.5136C24.4389 24.4127 24.6336 24.1334 24.7478 23.8912C25.9417 21.3763 26.9861 18.7789 28.3361 16.3515C29.5972 14.0805 31.1756 11.9862 32.6314 9.78922V9.7909ZM40.5065 94.5002C46.3466 98.9446 52.734 101.165 60.0718 99.4139C65.4249 98.1372 69.6278 95.0167 73.2631 90.8717C73.0734 90.8481 73.0163 90.8313 72.9592 90.8347C67.6112 91.1661 62.3991 90.3754 57.2559 88.9691C56.9386 88.8833 56.5121 88.9321 56.2165 89.0818C53.1454 90.6278 49.9869 91.9618 46.6841 92.9139C44.6557 93.4993 42.592 93.9686 40.5082 94.5002H40.5065ZM11.8017 72.6046C13.4254 88.3652 25.537 94.0006 36.5421 93.1494C36.4867 93.0771 36.4481 93.0131 36.3977 92.9627C33.0025 89.5209 30.3108 85.5778 28.133 81.2747C27.7837 80.585 27.3068 80.2115 26.5831 79.9811C22.0394 78.5394 17.729 76.5897 13.7478 73.9453C13.1131 73.5247 12.4935 73.0823 11.8017 72.6046ZM10.1511 69.1729C10.1662 68.8903 10.1763 68.6985 10.188 68.5084C10.2636 67.3325 10.2972 66.1516 10.4265 64.9808C10.863 60.999 11.8756 57.1518 13.234 53.3938C13.375 53.0035 13.3414 52.7041 13.1551 52.3474C11.3382 48.8501 9.9412 45.1913 9.02439 41.3559C8.7255 40.1026 8.48874 38.8342 8.22176 37.5591C-0.22598 47.0081 -0.335122 59.7088 10.1494 69.1746L10.1511 69.1729ZM36.7889 8.18944C36.8695 8.2315 36.8997 8.26009 36.9333 8.26346C41.9959 8.63018 46.8788 9.79259 51.6358 11.5404C51.923 11.6464 52.3344 11.6127 52.6232 11.4899C56.6279 9.79091 60.7468 8.48551 65.0605 7.85132C65.7624 7.7487 66.4677 7.66796 67.2401 7.56871C58.2332 -0.0802968 46.1484 -0.576549 36.7889 8.18944ZM93.2499 29.8479C92.9225 24.9409 90.6791 18.2356 85.2471 13.9712C81.815 11.2763 74.007 8.61504 71.4345 9.33503C75.1555 13.2546 77.963 17.7713 80.3105 22.5992C80.4196 22.8247 80.7235 22.9895 80.972 23.1073C83.2137 24.1805 85.5158 25.1411 87.6953 26.327C89.6162 27.3717 91.4028 28.6636 93.2499 29.8479ZM14.3523 54.859C14.3523 54.859 14.307 54.9061 14.2885 54.9582C12.5606 59.8703 11.6119 64.9203 11.6673 70.1402C11.669 70.3605 11.8588 70.6414 12.0435 70.7895C15.9727 73.9386 20.4022 76.1709 25.1072 77.8901C25.5958 78.0684 26.0861 78.2366 26.6839 78.4486C26.5982 78.1861 26.5647 78.0398 26.5042 77.9052C24.9628 74.4163 23.7454 70.8181 22.8202 67.1155C22.6926 66.6025 22.4021 66.0995 22.078 65.6739C20.9849 64.2356 19.7793 62.8831 18.7382 61.4095C17.2219 59.2663 15.8115 57.0475 14.3523 54.8573V54.859ZM23.8579 26.3909C23.8176 26.3909 23.7773 26.3792 23.7504 26.3926C23.2887 26.6096 22.8252 26.8216 22.3702 27.0487C17.9859 29.2221 13.914 31.8514 10.3543 35.241C10.0822 35.5001 9.94287 35.7373 9.99325 36.1511C10.4836 40.2927 11.5548 44.2779 13.1803 48.115C13.5211 48.9208 13.8939 49.7131 14.2834 50.5828C14.3842 50.3961 14.4362 50.312 14.4749 50.2228C16.2245 46.1535 18.3671 42.2996 20.822 38.6156C21.136 38.1445 21.2938 37.5406 21.4131 36.9754C21.8362 34.9601 22.1687 32.923 22.622 30.9144C22.9663 29.392 23.4431 27.8982 23.8596 26.3909H23.8579ZM95.0617 34.1224C94.882 38.7972 93.94 43.2349 92.449 47.5615C92.2844 48.041 92.2945 48.4312 92.5094 48.8938C94.1214 52.3777 95.3471 55.9944 96.0507 59.7744C96.2623 60.9082 96.4067 62.0555 96.583 63.2145C103.896 54.3879 103.634 42.6058 95.06 34.1224H95.0617ZM29.7349 81.0022C32.0823 85.2649 34.7656 89.2063 38.2917 92.5287C38.7266 92.9374 39.133 93.0417 39.7039 92.9492C43.1394 92.3975 46.4876 91.5126 49.7334 90.2627C51.3504 89.6386 52.9389 88.9405 54.6583 88.2273C54.3745 88.0977 54.2368 88.0254 54.0941 87.9733C50.6905 86.715 47.3591 85.2969 44.1687 83.5574C43.7708 83.3404 43.2838 83.2462 42.8271 83.1823C40.478 82.8593 38.1171 82.6221 35.7781 82.2403C33.7749 81.9139 31.7968 81.4295 29.7365 81.0022H29.7349ZM50.133 12.5733C45.5708 11.0324 41.0287 10.0634 36.3389 9.77745C35.4557 9.72362 34.9083 10.0012 34.3424 10.6472C31.0614 14.4018 28.7072 18.7049 26.7628 23.2604C26.7443 23.3041 26.7661 23.3663 26.7695 23.4521C26.882 23.4202 26.9744 23.4 27.06 23.3663C30.3427 22.1164 33.7077 21.1458 37.1315 20.3636C37.7762 20.2156 38.4042 19.8707 38.9701 19.5073C41.5929 17.8251 44.1771 16.0824 46.8066 14.4086C47.8427 13.7491 48.9576 13.2159 50.1347 12.5733H50.133ZM78.4533 22.1518C78.1494 21.5697 77.9194 21.1172 77.6776 20.6698C75.4846 16.6055 72.9038 12.8273 69.5741 9.59913C69.3877 9.41745 69.077 9.24251 68.8352 9.25764C64.0279 9.55371 59.38 10.5765 54.9202 12.4219C54.7926 12.4757 54.6768 12.5615 54.576 12.6204C56.6094 13.628 58.6429 14.5566 60.5974 15.6282C62.5536 16.7014 64.4258 17.9294 66.3518 19.0616C66.7128 19.2735 67.1477 19.3845 67.5625 19.4787C70.1399 20.0625 72.7241 20.6075 75.2966 21.2114C76.3192 21.452 77.3132 21.8086 78.4533 22.1535V22.1518ZM77.0496 88.7841C82.9618 87.4652 87.9002 84.7956 91.3491 79.7842C93.8829 76.1053 94.9593 71.9569 95.2128 67.4049C94.9928 67.5899 94.9005 67.6606 94.8165 67.7396C91.6346 70.7272 88.0899 73.2051 84.2346 75.2322C83.6116 75.5602 83.2523 75.9942 83.029 76.6486C81.6219 80.7717 79.7429 84.6677 77.3216 88.2945C77.2393 88.4174 77.1755 88.5536 77.0479 88.7858L77.0496 88.7841ZM81.3599 76.7159C81.1567 76.7866 81.0644 76.8101 80.9788 76.8488C77.1419 78.6252 73.159 79.976 69.0653 81.0224C68.5313 81.1586 67.9957 81.4328 67.5574 81.7693C64.859 83.8367 62.0902 85.7965 59.1198 87.4602C59.0089 87.5224 58.9166 87.6133 58.7806 87.7159C58.888 87.7579 58.9367 87.7832 58.9888 87.7966C63.5342 89.0028 68.1535 89.5411 72.8551 89.3039C74.682 89.2114 74.682 89.1996 75.7214 87.6991C75.8557 87.5056 75.9867 87.3088 76.1177 87.1136C78.2636 83.8989 79.9192 80.4353 81.3582 76.7159H81.3599ZM84.0499 73.5298C84.2229 73.4541 84.3118 73.4238 84.3941 73.3767C88.194 71.2386 91.6648 68.6682 94.704 65.5258C95.065 65.1524 95.196 64.7874 95.154 64.2776C94.7678 59.5792 93.616 55.0793 91.7336 50.7628C91.6715 50.6198 91.5842 50.4869 91.4683 50.2749C90.2073 53.6831 88.5332 56.7683 86.8574 59.8534C86.6492 60.237 86.5401 60.6912 86.4611 61.1269C85.8634 64.4459 85.2992 67.7699 84.693 71.0872C84.5469 71.888 84.2816 72.6668 84.0499 73.5298ZM91.2215 46.1535C91.2736 46.0408 91.3122 45.9752 91.334 45.9029C92.6807 41.6452 93.4077 37.2883 93.4178 32.8187C93.4178 32.5949 93.2348 32.314 93.0534 32.1542C90.3567 29.7789 87.3175 27.9218 84.1104 26.3321C83.2439 25.9014 82.3607 25.5044 81.3767 25.0401C81.4607 25.2891 81.4909 25.3984 81.5346 25.5027C82.8661 28.7578 83.9156 32.1004 84.7333 35.522C84.866 36.0754 85.1514 36.6305 85.4923 37.0898C87.524 39.8402 89.3912 42.6915 90.9612 45.733C91.0318 45.8676 91.1208 45.992 91.2215 46.1535ZM20.6894 41.7546C20.7196 41.7192 20.6658 41.7697 20.6272 41.8303C18.5048 45.0971 16.7719 48.5675 15.3161 52.1775C15.2489 52.3441 15.2691 52.6082 15.3564 52.7663C17.0423 55.8296 18.8641 58.8071 21.0285 61.5609C21.2535 61.8469 21.4886 62.1227 21.6448 62.3145C21.309 58.9316 20.827 55.5049 20.6658 52.0631C20.5063 48.618 20.6692 45.1577 20.6894 41.7546ZM42.0446 19.1743C42.0715 19.2516 42.0967 19.3307 42.1235 19.4081C49.092 18.3954 56.0788 18.138 63.2538 18.9001C63.0036 18.7218 62.9012 18.641 62.7903 18.5704C59.605 16.5786 56.24 14.9452 52.7525 13.5641C52.5359 13.4783 52.2084 13.5204 51.9885 13.623C50.8718 14.1478 49.7451 14.6643 48.6738 15.2749C46.4473 16.5433 44.2527 17.8706 42.0463 19.1743H42.0446ZM40.0716 81.4143C40.1186 81.3134 40.164 81.2124 40.211 81.1115C34.3424 78.0852 29.614 73.6442 25.0232 68.8869C25.0031 69.0837 24.9863 69.1241 24.998 69.1577C26.0055 72.4212 27.154 75.6326 28.6283 78.716C28.7274 78.9246 28.9876 79.1316 29.2126 79.1904C30.8968 79.6345 32.5793 80.1005 34.287 80.4437C36.2029 80.8289 38.144 81.0947 40.0733 81.4126L40.0716 81.4143ZM84.5889 63.6939C84.5486 63.6771 84.5066 63.6586 84.4663 63.6418C84.1993 63.9967 83.9089 64.3365 83.6671 64.7066C82.5336 66.4477 81.4707 68.2393 80.2752 69.9366C78.1427 72.9663 75.4662 75.4627 72.4739 77.6327C72.0105 77.9691 71.5941 78.3661 71.1558 78.7362C71.3372 78.8153 71.4513 78.8035 71.5588 78.7699C74.8717 77.7387 78.1142 76.5275 81.2491 75.0303C81.8351 74.7511 82.1794 74.3743 82.3322 73.7552C82.8325 71.7181 83.3816 69.6944 83.8518 67.6505C84.1523 66.3434 84.3471 65.0128 84.5889 63.6922V63.6939ZM35.2391 22.537C35.2139 22.4916 35.1904 22.4462 35.1652 22.4007C35.0913 22.4075 35.0124 22.4007 34.9435 22.4243C32.0655 23.3764 29.1841 24.3235 26.3145 25.3026C26.1046 25.3732 25.8896 25.6491 25.8191 25.8745C25.2784 27.6139 24.7461 29.3584 24.2642 31.1146C23.9351 32.3106 23.69 33.5286 23.4079 34.7364C27.0634 30.3542 30.8599 26.1655 35.2391 22.5353V22.537ZM70.145 21.6555C74.6467 25.2117 78.8278 29.101 82.6361 33.4024C81.7915 30.3626 80.8209 27.3851 79.5162 24.5254C79.4524 24.3857 79.2912 24.2495 79.1451 24.1957C76.2184 23.1174 73.2279 22.2611 70.1433 21.6538L70.145 21.6555ZM85.7643 39.9815C86.6072 45.4521 86.9514 50.8856 86.8188 56.3561C86.938 56.2888 86.9884 56.2283 87.027 56.161C88.4711 53.7201 89.4786 51.0807 90.4944 48.4481C90.5582 48.2815 90.5129 48.0191 90.4222 47.8526C89.5071 46.1636 88.5987 44.4713 87.6298 42.8127C87.0606 41.837 86.3889 40.9219 85.7626 39.9798L85.7643 39.9815ZM64.4208 82.2268C64.3973 82.1545 64.3738 82.0805 64.3486 82.0081C63.0674 82.2655 61.7678 82.4573 60.5067 82.792C56.9285 83.7408 53.3385 84.2825 49.6444 83.5389C49.0164 83.4128 48.3565 83.4481 47.7117 83.4094C47.7537 83.5995 47.8124 83.6466 47.8779 83.6735C50.6401 84.7737 53.3989 85.8839 56.1729 86.9538C56.4315 87.0531 56.8412 86.9993 57.0863 86.8529C59.0039 85.709 60.903 84.5331 62.7971 83.3505C63.3545 83.0023 63.8801 82.602 64.4208 82.2251V82.2268ZM41.7877 21.0836C39.6216 21.0617 37.8837 22.0643 36.3859 23.7045C38.243 22.8028 40.0414 21.9297 41.7877 21.0836ZM64.0111 20.6899C65.6583 21.378 67.3139 22.071 68.9696 22.7624C67.5423 21.5209 66.058 20.4174 64.0111 20.6899ZM83.8686 38.8713C83.8366 37.2664 83.0592 36.0603 81.909 35.0526C82.5622 36.3261 83.2154 37.5995 83.8686 38.8713ZM22.7043 40.0051C23.3054 38.7737 23.9066 37.5423 24.506 36.3109C23.5053 37.3556 22.5935 38.444 22.7043 40.0051Z" fill="#F3EFF5"/>
<path d="M74.6543 31.4697C74.3319 31.8532 74.0112 32.2368 73.6686 32.6456C73.9759 32.7482 74.2563 32.8255 74.5233 32.9366C74.8121 33.0577 75.1899 33.2074 74.9649 33.5994C74.7987 33.8887 74.5518 34.2908 74.0817 34.0283C73.5208 33.7138 72.9617 33.3941 72.4311 33.0341C71.9475 32.7061 71.5076 32.3158 71.0408 31.9626C70.5689 31.6043 70.1172 31.3603 69.4573 31.6345C68.8982 31.8667 68.3575 31.6295 67.936 31.0155C68.5791 31.1349 69.1282 31.2375 69.7512 31.3536C69.6521 31.039 69.5766 30.8052 69.4775 30.489C69.8318 30.3695 70.1743 30.2551 70.6311 30.1021C70.2684 31.5521 71.6956 31.4344 72.0751 32.1981C72.5486 31.648 72.9818 31.1467 73.4151 30.6437C73.4721 30.6875 73.5292 30.7329 73.5863 30.7766C73.4486 30.9936 73.3042 31.2073 73.1733 31.4293C73.0154 31.6985 72.8257 31.9609 72.735 32.2536C72.688 32.4067 72.8257 32.6153 72.8794 32.7986C73.0305 32.7145 73.2253 32.6657 73.3227 32.5413C73.588 32.2048 73.7945 31.8196 74.0632 31.4865C74.1623 31.3637 74.3722 31.3301 74.5317 31.256C74.5737 31.3284 74.614 31.399 74.6559 31.4714L74.6543 31.4697Z" fill="#F3EFF5"/>
<path d="M47.5086 25.1466C47.7353 25.6058 47.9636 26.0667 48.2104 26.568C48.4455 26.4318 48.647 26.272 48.8754 26.1946C49.0735 26.1256 49.3036 26.1492 49.5386 26.129C49.5801 25.9383 49.3853 25.8183 48.9543 25.769C49.1961 25.557 49.3892 25.3871 49.6914 25.123C49.7804 25.5924 49.8459 25.9406 49.9349 26.4065C50.3933 26.1189 50.8417 25.8396 51.3538 25.5183C51.4764 25.5957 51.6745 25.7522 51.8962 25.8531C52.1212 25.9557 52.3697 26.0028 52.6467 26.0852C52.7911 25.3518 52.195 24.6268 52.7878 23.9858C53.0514 24.6957 53.0665 25.4258 52.9087 26.1424C52.8264 26.5192 51.8239 26.7077 51.2614 26.5815C50.9894 26.5209 50.6805 26.6135 50.39 26.6572C49.9332 26.7262 50.0659 27.0727 50.0222 27.3738C50.0021 27.5134 49.7116 27.6144 49.5437 27.7338C49.2482 26.9835 48.5312 26.9835 47.9099 26.8103C47.8729 26.8002 47.8377 26.78 47.8024 26.7648C46.7563 27.3351 46.5531 27.3233 46.3013 26.6168C46.7093 26.5781 47.1005 26.5411 47.4985 26.5041C47.4364 26.0465 47.3776 25.6243 47.3205 25.2021C47.3826 25.1836 47.4448 25.1651 47.5069 25.1466H47.5086Z" fill="#F3EFF5"/>
<path d="M35.5156 29.3777C36.4643 29.5442 36.4794 30.7857 37.6447 30.7151C37.2467 29.9867 36.9092 29.3659 36.5717 28.7452C36.6221 28.7166 36.6725 28.6863 36.7212 28.6577C37.4197 29.1052 37.6783 29.874 37.9889 30.5906C38.0309 30.6865 37.8462 30.9455 37.7068 31.0431C37.1678 31.4233 36.6036 31.7681 36.0042 32.155C35.885 32.0709 35.7103 31.9481 35.4786 31.7849C35.3225 32.0692 35.168 32.3485 35.0152 32.6294C34.7364 33.1391 34.3956 33.5563 33.8163 33.7784C33.5762 33.8709 33.42 34.1804 33.2235 34.389C32.9398 34.6918 32.6442 34.8819 32.2563 34.4041C32.5905 34.1384 32.9196 33.8793 33.2773 33.595C32.9683 33.2501 32.6644 32.912 32.3621 32.5739C32.3974 32.5268 32.4327 32.4797 32.4662 32.4309C32.9347 32.7135 33.4032 32.9961 33.9221 33.309C34.2394 32.9507 34.5551 32.5941 34.8708 32.2375L34.8086 32.1601C34.5014 32.3014 34.1924 32.4427 33.865 32.5924C34.0581 31.9044 34.7297 31.4165 36.0227 31.0279C35.9924 31.2264 35.9656 31.4031 35.9269 31.6655C36.2225 31.4535 36.4542 31.2853 36.7094 31.1036C36.3215 30.5435 35.9488 30.0052 35.5139 29.3777H35.5156Z" fill="#F3EFF5"/>
<path d="M66.1561 29.0579C65.1419 28.6828 64.2586 28.3464 63.3687 28.0301C62.6668 27.7811 62.6634 27.7912 62.0892 28.3245C62.0002 28.1748 61.9162 28.0351 61.8339 27.8955C61.7584 27.7677 61.6828 27.6381 61.5334 27.3841C61.3319 28.1058 61.164 28.703 60.9961 29.3002C60.9222 29.2766 60.8483 29.2547 60.7744 29.2312C60.9339 28.6239 61.033 27.9914 61.2681 27.4144C61.5015 26.8425 61.9918 26.7718 62.5157 27.1133C62.7927 27.2933 63.0799 27.4598 63.3838 27.6449C63.6793 26.9922 63.9597 26.3714 64.2418 25.749C64.2939 25.7675 64.3476 25.786 64.3997 25.8045C64.4685 26.5447 63.6659 27.2832 64.3846 28.1058C64.4685 27.8299 64.534 27.618 64.618 27.3421C64.9907 27.4413 65.3568 27.5389 65.7531 27.6449C65.6657 27.9594 65.5935 28.2219 65.5113 28.5179C66.0318 28.6155 66.1678 28.2454 66.3256 27.8905C66.5154 27.4632 66.5406 26.9131 67.2979 26.7012C66.8613 27.6011 66.4835 28.3783 66.1544 29.0579H66.1561Z" fill="#F3EFF5"/>
<path d="M43.4975 29.0668C43.1213 29.4066 42.8258 29.7246 42.4833 29.9752C41.4775 30.7087 40.8595 30.416 40.6899 29.1829C40.9653 29.3865 41.2407 29.738 41.5597 29.7835C41.8989 29.8322 42.2801 29.5883 42.6411 29.4722C42.6831 29.3881 42.7251 29.3057 42.767 29.2216C42.5219 29.0786 42.2784 28.9356 41.9493 28.7422C42.4749 28.3317 42.9148 27.9852 43.3682 27.6319C43.1465 27.0499 42.9165 26.4409 42.6864 25.8336L42.9182 25.7192C43.0139 25.842 43.123 25.9564 43.2019 26.0893C43.2708 26.2054 43.3077 26.3417 43.3581 26.4678C43.7421 27.4233 43.5131 28.1433 42.6713 28.6278C42.9198 28.7607 43.1566 28.8852 43.4975 29.0668Z" fill="#F3EFF5"/>
<path d="M57.5177 26.8759C57.5009 26.6218 57.4875 26.3931 57.4707 26.1525C57.9157 26.0381 58.3858 26.7884 58.7519 26.0247C58.9164 26.1306 59.0508 26.2181 59.3127 26.388C59.1498 26.065 59.0558 25.8817 58.9618 25.6933C59.5864 25.6613 59.8232 25.8161 59.8181 26.2417C59.8131 26.706 59.5797 26.8321 58.9433 26.8069C58.4983 26.7901 58.05 26.8456 57.5177 26.8742V26.8759Z" fill="#F3EFF5"/>
<path d="M55.8407 26.3069C56.1043 27.7855 57.0245 27.1009 57.7179 27.1429C57.362 27.7687 56.5912 27.9891 55.9616 27.6745C55.3655 27.3768 55.6442 26.9596 55.8407 26.3069Z" fill="#F3EFF5"/>
<path d="M53.8155 26.3035C53.661 25.5566 53.384 24.813 53.7383 24.0442C53.8054 24.0409 53.8709 24.0375 53.9381 24.0325C53.9801 24.7895 54.0221 25.5448 54.0624 26.3018C53.9801 26.3018 53.8978 26.3018 53.8155 26.3018V26.3035Z" fill="#F3EFF5"/>
<path d="M76.5131 33.5392C76.0094 34.1061 75.5057 34.6747 75.0036 35.2416C74.9515 35.1962 74.9012 35.1491 74.8491 35.1036C75.2588 34.4476 75.5678 33.7057 76.3335 33.3625C76.3939 33.4214 76.4544 33.4803 76.5131 33.5392Z" fill="#F3EFF5"/>
<path d="M67.0596 29.4511C67.0629 28.541 67.4004 27.7605 68.0973 27.4224C67.7984 28.1188 67.4995 28.8152 67.2006 29.5133C67.1536 29.4932 67.1066 29.473 67.0596 29.4528V29.4511Z" fill="#F3EFF5"/>
<path d="M44.6481 27.7368C44.3391 27.0454 44.0302 26.354 43.7212 25.6626C44.3525 25.9418 44.7522 26.7813 44.8378 27.693C44.774 27.7082 44.7119 27.7216 44.6481 27.7368Z" fill="#F3EFF5"/>
<path d="M38.8557 30.2326C38.4023 29.6085 37.949 28.9827 37.4956 28.3586C37.5527 28.3183 37.6098 28.2762 37.6669 28.2358C38.3822 28.6749 38.7281 29.3764 39.0035 30.1283C38.9548 30.1637 38.9061 30.199 38.8574 30.2326H38.8557Z" fill="#F3EFF5"/>
</svg>
